<svg xmlns="http://www.w3.org/2000/svg" viewBox="0 0 160 160" role="img" aria-label="CET Reader logo mark">
  <rect x="10" y="10" width="140" height="140" rx="36" fill="#EAF5EF"/>
  <path d="M34 72c0-10 8-18 18-18h24c13 0 24 6 32 15v52c-8-9-19-15-32-15H52c-10 0-18-8-18-18V72Z" fill="#1F7A5A"/>
  <path d="M126 72c0-10-8-18-18-18H84c-13 0-24 6-32 15v52c8-9 19-15 32-15h24c10 0 18-8 18-18V72Z" fill="#1F7A5A"/>
  <path d="M80 70v52" stroke="#fff" stroke-width="7" stroke-linecap="round"/>
  <path d="M54 83h20M54 96h20" stroke="#7ABD9A" stroke-width="6" stroke-linecap="round"/>
  <path d="M59 39v14M80 31v20M101 39v14" stroke="#1F7A5A" stroke-width="8" stroke-linecap="round"/>
</svg>
